<svg xmlns="http://www.w3.org/2000/svg" viewBox="0 0 100 100">
  <polygon points="50,5 93,36 77,88 23,88 7,36" fill="#005bac" stroke="#ffffff" stroke-width="4"/>
  <polygon points="50,11 87,40 73,83 27,83 13,40" fill="none" stroke="#f1b82d" stroke-width="3"/>
  <path d="M50,25 C55,35 62,38 60,50 C58,62 42,62 40,50 C38,38 45,35 50,25 Z" fill="#f1b82d" />
  <path d="M30,68 C42,62 50,66 50,66 C50,66 58,62 70,68 C62,75 50,72 50,72 C50,72 38,75 30,68 Z" fill="#ffffff" />
  <rect x="48" y="52" width="4" height="15" fill="#f1b82d" rx="1"/>
  <polygon points="50,15 52,20 57,20 53,23 55,28 50,25 45,28 47,23 43,20 48,20" fill="#ffffff"/>
</svg>
